<svg
 xmlns="http://www.w3.org/2000/svg"
 xmlns:xlink="http://www.w3.org/1999/xlink"
 width="28px" height="28px">
<path fill-rule="evenodd"  stroke-width="1px" stroke="rgb(221, 221, 221)" fill="rgb(80, 197, 218)"
 d="M23.340,23.452 C22.633,24.129 21.508,24.105 20.832,23.397 L14.701,16.992 C14.267,16.539 14.121,15.917 14.258,15.349 C13.136,16.147 11.792,16.563 10.387,16.532 C8.662,16.494 7.057,15.788 5.868,14.545 C4.677,13.302 4.042,11.668 4.079,9.944 C4.116,8.219 4.822,6.613 6.066,5.422 C8.636,2.964 12.728,3.053 15.188,5.622 C17.421,7.956 17.552,11.544 15.635,14.025 C16.209,13.911 16.827,14.083 17.263,14.538 L23.396,20.944 C24.072,21.653 24.048,22.775 23.340,23.452 ZM15.023,10.182 C15.050,8.980 14.607,7.841 13.777,6.975 C12.063,5.182 9.209,5.119 7.416,6.833 C5.624,8.550 5.562,11.403 7.277,13.194 C8.991,14.986 11.845,15.049 13.638,13.334 C14.505,12.504 14.997,11.385 15.023,10.182 Z"/>
</svg>
